<svg xmlns="http://www.w3.org/2000/svg" width="243.248" height="342.327" viewBox="0 0 243.248 342.327"><defs><clipPath id="a" clipPathUnits="userSpaceOnUse"><path d="M360 360h3010v7920H360Z"/></clipPath><clipPath id="b" clipPathUnits="userSpaceOnUse"><path d="M-159.505 210.143h301v-792h-301Z"/></clipPath><clipPath id="c" clipPathUnits="userSpaceOnUse"><path d="M360 360h3010v7920H360Z"/></clipPath><clipPath id="d" clipPathUnits="userSpaceOnUse"><path d="M360 360h3010v7920H360Z"/></clipPath><clipPath id="e" clipPathUnits="userSpaceOnUse"><path d="M360 360h3010v7920H360Z"/></clipPath><clipPath id="f" clipPathUnits="userSpaceOnUse"><path d="M360 360h3010v7920H360Z"/></clipPath><clipPath id="g" clipPathUnits="userSpaceOnUse"><path d="M-172.083 109.493h301v-792h-301Z"/></clipPath><clipPath id="h" clipPathUnits="userSpaceOnUse"><path d="M360 360h3010v7920H360Z"/></clipPath><clipPath id="i" clipPathUnits="userSpaceOnUse"><path d="M360 360h3010v7920H360Z"/></clipPath><clipPath id="j" clipPathUnits="userSpaceOnUse"><path d="M360 360h3010v7920H360Z"/></clipPath><clipPath id="k" clipPathUnits="userSpaceOnUse"><path d="M-188.281 134.084h301v-792h-301Z"/></clipPath><clipPath id="l" clipPathUnits="userSpaceOnUse"><path d="M360 360h3010v7920H360Z"/></clipPath><clipPath id="m" clipPathUnits="userSpaceOnUse"><path d="M-271.559 82.63h301v-792h-301Z"/></clipPath><clipPath id="n" clipPathUnits="userSpaceOnUse"><path d="M360 360h3010v7920H360Z"/></clipPath><clipPath id="o" clipPathUnits="userSpaceOnUse"><path d="M360 360h3010v7920H360Z"/></clipPath><clipPath id="p" clipPathUnits="userSpaceOnUse"><path d="M360 360h3010v7920H360Z"/></clipPath><clipPath id="q" clipPathUnits="userSpaceOnUse"><path d="M-245.452 134.084h301v-792h-301Z"/></clipPath></defs><path d="M1690.16 1812.13h1105.3v773.707h-1105.3z" clip-path="url(#a)" style="fill:none;stroke:#000;stroke-width:3.81136;stroke-linecap:butt;stroke-linejoin:miter;stroke-miterlimit:10;stroke-dasharray:none;stroke-opacity:1" transform="matrix(.1423 0 0 -.14231 -234.275 395.459)"/><path d="M4.218-6.14H2.542v-1.582c0-.503.059-1.207.809-1.207.644 0 .715 1.02 1.289 1.02.27 0 .586-.176.586-.574 0-.469-.598-.832-1.371-.832-2.45 0-2.45 2.414-2.45 3.175H.282v.434h1.125v4.29C1.406-.363 1.17-.246.269-.199v.2h3.55v-.2C2.567-.233 2.555-.585 2.555-1.417v-4.289h1.664zM4.76.001h3.223v-.2C7.045-.256 6.975-.49 6.975-1.392v-4.84l-.047-.035c-.715.257-1.406.515-2.121.75v.199c.176-.024.363-.059.55-.059.212 0 .481.024.481.82v3.165c0 1.066-.234 1.148-1.078 1.195zm.844-8.625c0 .258.187.703.68.703a.698.698 0 1 0 0-1.395c-.481 0-.68.434-.68.692m6.85 7.629c.046.07.21.234.21.434 0 .293-.117.34-.539.363v.2h2.742v-.2c-.234-.024-.609-.035-1.125-.82L11.996-3.69l1.137-1.64a1.42 1.42 0 0 1 1.102-.599v-.21h-2.157v.21c.235.012.551.024.551.305 0 .152-.082.281-.914 1.477-.258-.399-.82-1.23-.82-1.477 0-.281.34-.305.586-.305v-.21H8.657v.21c.445-.023.609-.023 1.171.809l1.278 1.969-1.547 2.25c-.434.633-.633.656-.996.703v.2h1.98v-.2c-.234 0-.527 0-.55-.246 0-.153.187-.446.269-.563l1.078-1.675zm8.258-1.242c-.316.504-.902 1.43-2.12 1.43-.892 0-2.005-.551-2.169-2.965h4.242c-.14-1.793-1.113-2.496-2.39-2.496-1.102 0-2.79.832-2.79 3.351 0 1.934 1.044 3.059 2.555 3.059 1.957 0 2.754-1.864 2.895-2.285zm-4.242-1.98c.223-1.196.75-1.57 1.5-1.57 1.078 0 1.219.913 1.313 1.57zm9.37 2.824c-.118.492-.645.82-1.22.82-.902 0-1.875-.762-1.875-2.8 0-1.852.926-2.52 1.688-2.52.644 0 1.312.433 1.406 1.37zm2.062.597c-.914.07-.914-.199-.914-.761v-7.735l-.07-.023c-.657.234-1.325.422-2.005.597v.223c.106-.012.246-.012.329-.012.597 0 .597.282.597.692v2.133c-.457-.399-.867-.586-1.453-.586-1.523 0-2.824 1.558-2.824 3.351 0 2.777 1.957 3.059 2.484 3.059 1.008 0 1.512-.504 1.758-.88h.035v.833l.047.047c.727-.258 1.36-.48 2.016-.715zm2.2-3.597c.058-.774.926-1.02 1.36-1.02 1.241 0 1.734 1.406 1.734 2.672 0 .902-.211 2.437-1.782 2.437-.34 0-1.312-.175-1.312-.644zM28.953-.737c0 .504 1.442.879 2.122.879 2.52 0 3.328-2.157 3.328-3.387 0-1.465-.786-3.023-2.426-3.023-1.043 0-1.77.785-1.852 1.101h-.023v-4.125l-.07-.023a25 25 0 0 1-1.98.597v.223c.081-.012.222-.012.304-.012.597 0 .597.282.597.692zM35.056 0h3.223v-.2C37.34-.256 37.27-.49 37.27-1.392v-4.84l-.047-.035c-.715.257-1.406.515-2.121.75v.199c.176-.024.363-.059.55-.059.212 0 .481.024.481.82v3.165c0 1.066-.234 1.148-1.078 1.195zm.844-8.625c0 .258.187.703.68.703a.698.698 0 1 0 0-1.395c-.481 0-.68.434-.68.692m6.202 2.484h-1.383v-1.582c0-.105 0-.175-.094-.175-.504.726-.703 1.02-1.23 1.558-.293.293-.598.375-.598.54 0 .046.024.081.059.093h.715v4.113c0 1.36.562 1.735 1.265 1.735.621 0 1.266-.457 1.594-1.043l-.176-.153c-.152.188-.398.48-.832.48-.703 0-.703-.808-.703-1.23v-3.902h1.383zm4.608 1.864-.058-1.875h-.153c-.035.058-.105.152-.234.152-.223 0-.645-.27-1.254-.27-1.324 0-1.91.891-1.91 1.665 0 1.007.75 1.511 1.605 1.992l.786.445c.433.246.714.574.714 1.008 0 .773-.644.996-1.113.996-1.336 0-1.594-1.184-1.758-1.91h-.21V.06h.175c.082-.13.129-.164.293-.164.387-.012.973.246 1.582.246.879 0 1.98-.574 1.98-1.77 0-.808-.48-1.195-1.148-1.605L44.542-4.1c-.504-.305-.586-.704-.586-.973 0-.352.282-.89 1.032-.89.597 0 1.218.292 1.511 1.687zm6.569 2.039c-.317.504-.903 1.43-2.121 1.43-.891 0-2.004-.551-2.168-2.965h4.242c-.14-1.793-1.114-2.496-2.39-2.496-1.102 0-2.79.832-2.79 3.351 0 1.934 1.043 3.059 2.555 3.059 1.957 0 2.754-1.864 2.894-2.285zm-4.243-1.98c.223-1.196.75-1.57 1.5-1.57 1.079 0 1.22.913 1.313 1.57zm8.21-1.923h-1.383v-1.582c0-.105 0-.175-.094-.175-.504.726-.703 1.02-1.23 1.558-.294.293-.598.375-.598.54 0 .046.023.081.058.093h.715v4.113c0 1.36.563 1.735 1.266 1.735.62 0 1.265-.457 1.594-1.043l-.176-.153c-.153.188-.399.48-.832.48-.703 0-.703-.808-.703-1.23v-3.902h1.382zM5.568 15.426c0 1.629.855 1.91 2.25 1.91v-.152c-.961-.223-1.243-.739-1.243-1.676v-2.297c0-.96-.175-1.5-1.23-1.734v-.024c1.055-.246 1.23-.773 1.23-1.746V7.41c0-.937.282-1.453 1.243-1.675v-.153c-1.395 0-2.25.281-2.25 1.899v2.425c0 .88-.211 1.301-1.16 1.547.949.258 1.16.68 1.16 1.559zm6.58 0c0 1.629.855 1.91 2.25 1.91v-.152c-.961-.223-1.242-.739-1.242-1.676v-2.297c0-.96-.176-1.5-1.23-1.734v-.024c1.054-.246 1.23-.773 1.23-1.746V7.41c0-.937.28-1.453 1.242-1.675v-.153c-1.395 0-2.25.281-2.25 1.899v2.425c0 .88-.211 1.301-1.16 1.547.949.258 1.16.68 1.16 1.559zm4.28-.563h3.223v-.199c-.938-.058-1.008-.293-1.008-1.195v-4.84l-.047-.035c-.715.258-1.406.516-2.121.75v.2c.176-.024.363-.06.55-.06.212 0 .481.024.481.82v3.165c0 1.066-.234 1.148-1.078 1.195zm.844-8.625c0 .258.187.704.68.704a.698.698 0 1 0 0-1.395c-.481 0-.68.434-.68.691m3.928 7.465c0 .914-.41.938-.949.961v.2h3.024v-.2c-.48-.023-.926-.047-.926-.715v-3.843c0-.07.621-.809 1.57-.809.703 0 .938.527.938 1.43v2.965c0 .89-.317.925-.926.972v.2h3.059v-.2c-.563-.023-.985-.058-.985-1.101v-3.434c.293-.457.762-.832 1.512-.832.984 0 .996.809.996 1.5v2.883c0 .867-.223.902-.902.984v.2H30.6v-.2l-.352-.035c-.597-.094-.586-.504-.586-.797V11.02c0-1.008-.199-2.426-1.617-2.426-1.078 0-1.91.808-2.191 1.137-.153-.575-.574-1.137-1.465-1.137-.727 0-1.29.433-2.098 1.043v-1.02l-.093-.023c-.622.223-1.266.433-1.91.61v.234c.105-.036.246-.059.433-.059.223 0 .48.012.48.879zm10.492 2.942c0 .597-.047.879-.95.949v.234h3.305v-.246c-.984 0-1.207-.152-1.207-1.031v-2.133c.445.434.832.586 1.383.586 1.887 0 2.86-1.91 2.86-3.48 0-1.817-1.032-2.93-2.25-2.93-1.055 0-1.676.668-1.97 1.043l-.023-.024v-.996l-.082-.023c-.656.258-1.312.48-1.969.691v.223c.13-.023.27-.023.387-.023.48 0 .516.234.516.785zm1.148-6.34c.082-.516.844-.903 1.336-.903 1.664 0 1.734 2.215 1.734 2.532 0 2.367-1.23 2.625-1.675 2.625-.75 0-1.395-.586-1.395-.89zm4.966 4.558h3.223v-.199c-.786-.047-1.02-.152-1.02-.949V5.57l-.059-.023c-.714.234-1.44.422-2.167.598v.222c.164-.011.292-.035.468-.035.528 0 .61.223.61.844v6.504c0 .75-.246.926-1.055.984zm7.559-7.37c0-1.63-.844-1.91-2.25-1.91v.152c.972.222 1.242.738 1.242 1.675v2.297c0 .973.176 1.5 1.242 1.735v.023c-1.066.246-1.242.785-1.242 1.746v2.297c0 .937-.27 1.453-1.242 1.676v.152c1.406 0 2.25-.281 2.25-1.898v-2.426c0-.879.222-1.3 1.16-1.559-.938-.246-1.16-.668-1.16-1.547zm6.58 0c0-1.63-.844-1.91-2.25-1.91v.152c.972.222 1.242.738 1.242 1.675v2.297c0 .973.176 1.5 1.242 1.735v.023c-1.066.246-1.242.785-1.242 1.746v2.297c0 .937-.27 1.453-1.242 1.676v.152c1.406 0 2.25-.281 2.25-1.898v-2.426c0-.879.222-1.3 1.16-1.559-.938-.246-1.16-.668-1.16-1.547zm-64.814 20.103c-.457.703-.96 1.289-1.945 1.289-1.149 0-2.086-1.043-2.086-2.602 0-2.015 1.254-2.437 1.758-2.437.726 0 .785.246.902.656l.082.305c.082.293.305.656.668.62.41-.023.621-.28.621-.597 0-.246-.176-.668-.586-.949-.34-.223-.949-.422-1.441-.422-1.477 0-3.059 1.125-3.059 3.363 0 2.157 1.465 3.047 2.555 3.047 1.101 0 1.992-.586 2.73-2.144zm3.982-4.137c-1.829 0-2.942 1.477-2.942 3.164 0 1.84 1.23 3.246 2.988 3.246 2.075 0 3.024-1.898 3.024-3.246 0-1.98-1.277-3.164-3.07-3.164m.234 6.024c-1.64 0-1.945-2.508-1.945-3.516 0-1.418.75-2.133 1.605-2.133 1.254 0 1.945 1.488 1.945 3.176 0 1.957-.914 2.473-1.605 2.473m9.797-.434c-.82.023-.856-.293-.856-.785v-4.676h-2.156v.234c.961.024 1.02.317 1.02.856v3.21c0 .446-.106.587-.223.692-.363.305-.773.492-1.184.492-.902 0-1.03-.843-1.03-1.03v-4.454h-1.993v.188c.41.035.855.058.855.878v3.434c0 1.453 1.055 1.781 1.618 1.781.246 0 .902-.058 1.43-.586l.585-.586v1.125l.035.024c.633-.223 1.16-.422 1.899-.61Zm1.383-.55c0 .808-.2.984-.844 1.03v.2h2.894v-.2c-.714-.046-.902-.27-.902-.714v-3.832c.516-.504.938-.774 1.348-.774.808 0 1.054.48 1.054 1.313v2.859c0 1.031-.363 1.102-.867 1.148v.2H8.06v-.2c-.668-.058-.832-.27-.832-.902v-3.129c0-1.676-.973-2.039-1.606-2.039-.796 0-1.324.469-1.992 1.102v-1.078l-.094-.024c-.62.223-1.265.434-1.875.61v.234c.047-.035.2-.059.387-.059.223 0 .48.012.48.88zm9.222-4.911h-1.383v-1.582c0-.105 0-.176-.093-.176-.504.727-.703 1.02-1.23 1.559-.294.293-.598.375-.598.539 0 .047.023.082.058.094h.715v4.113c0 1.36.563 1.734 1.266 1.734.62 0 1.265-.457 1.593-1.043l-.175-.152c-.153.187-.399.48-.832.48-.704 0-.704-.808-.704-1.23v-3.902h1.383zm7.143 7.852v-.692h-6.82v.692zm3.351-7.98c-1.828 0-2.941 1.476-2.941 3.163 0 1.84 1.23 3.246 2.988 3.246 2.075 0 3.024-1.898 3.024-3.246 0-1.98-1.278-3.164-3.07-3.164m.235 6.023c-1.64 0-1.945-2.508-1.945-3.516 0-1.418.75-2.133 1.605-2.133 1.254 0 1.945 1.488 1.945 3.176 0 1.957-.914 2.473-1.605 2.473m4.347-.985c0 .809-.199.985-.843 1.031v.2h2.894v-.2c-.715-.046-.902-.27-.902-.714v-3.832c.516-.504.937-.774 1.348-.774.808 0 1.054.48 1.054 1.313v2.859c0 1.031-.363 1.102-.867 1.148v.2h2.848v-.2c-.668-.058-.832-.27-.832-.902v-3.129c0-1.676-.973-2.039-1.606-2.039-.797 0-1.324.469-1.992 1.102v-1.078l-.094-.024c-.62.223-1.265.434-1.875.61v.234c.047-.035.2-.059.387-.059.223 0 .48.012.48.88zm11.31-1.008c-.317.504-.903 1.43-2.122 1.43-.89 0-2.004-.55-2.168-2.965h4.242c-.14-1.793-1.113-2.496-2.39-2.496-1.102 0-2.79.832-2.79 3.352 0 1.933 1.043 3.058 2.555 3.058 1.957 0 2.754-1.863 2.895-2.285zm-4.243-1.98c.223-1.195.75-1.57 1.5-1.57 1.078 0 1.219.914 1.312 1.57zm9.044-.059-.059-1.875h-.152c-.035.059-.106.153-.234.153-.223 0-.645-.27-1.254-.27-1.325 0-1.91.89-1.91 1.664 0 1.008.75 1.512 1.605 1.992l.785.446c.434.246.715.574.715 1.008 0 .773-.645.996-1.113.996-1.336 0-1.594-1.184-1.758-1.91h-.211v2.132h.176c.082-.129.129-.164.293-.164.386-.012.972.246 1.582.246.879 0 1.98-.574 1.98-1.77 0-.808-.48-1.195-1.148-1.605l-1.465-.867c-.504-.305-.586-.703-.586-.973 0-.351.281-.89 1.031-.89.598 0 1.219.293 1.512 1.687zm7.837 5.989v-.692h-6.82v.692zm.234-1.711h3.223v-.2c-.938-.058-1.008-.293-1.008-1.195v-4.84l-.047-.035c-.715.258-1.406.516-2.121.75v.2c.176-.024.363-.06.55-.06.212 0 .481.024.481.821v3.164c0 1.067-.234 1.149-1.078 1.195zm.844-8.625c0 .257.187.703.68.703a.698.698 0 1 0 0-1.395c-.48 0-.68.434-.68.692m3.908 7.465c0 .914-.41.937-.95.96v.2h3.024v-.2c-.48-.023-.925-.046-.925-.714V24.97c0-.07.62-.809 1.57-.809.703 0 .937.528.937 1.43v2.965c0 .89-.316.926-.925.972v.2h3.058v-.2c-.562-.023-.984-.058-.984-1.101v-3.434c.293-.457.761-.832 1.511-.832.985 0 .997.809.997 1.5v2.883c0 .867-.223.902-.903.984v.2h2.989v-.2l-.352-.035c-.598-.093-.586-.504-.586-.797v-2.812c0-1.008-.2-2.426-1.617-2.426-1.078 0-1.91.809-2.192 1.137-.152-.574-.574-1.137-1.464-1.137-.727 0-1.29.434-2.098 1.043v-1.02l-.094-.023c-.62.223-1.265.434-1.91.61v.234c.105-.035.246-.059.434-.059.222 0 .48.012.48.88zm10.474 2.94c0 .599-.047.88-.95.95v.235h3.305v-.247c-.984 0-1.207-.152-1.207-1.03v-2.134c.445.434.832.586 1.383.586 1.887 0 2.86-1.91 2.86-3.48 0-1.817-1.032-2.93-2.25-2.93-1.055 0-1.676.668-1.97 1.043l-.023-.023v-.996l-.082-.024c-.656.258-1.312.48-1.969.692v.222c.13-.023.27-.023.387-.023.48 0 .516.234.516.785zm1.148-6.339c.082-.516.844-.902 1.336-.902 1.664 0 1.734 2.215 1.734 2.531 0 2.367-1.23 2.625-1.675 2.625-.75 0-1.395-.586-1.395-.89zm4.945 4.559h3.223v-.2c-.785-.046-1.02-.152-1.02-.949v-8.144l-.058-.024c-.715.235-1.441.422-2.168.598v.223c.164-.012.293-.036.469-.036.527 0 .61.223.61.844v6.504c0 .75-.247.926-1.056.984zM.371 40.094c.938-.024 1.29.035 1.77.293.879.457 1.043 1.465 1.043 1.805 0 1.02-.563 2.097-1.828 2.097-.809 0-1.324-.762-1.957-.762-.211 0-.528.094-.528.481 0 .703 1.184.773 1.512.773 2.145 0 3.785-1.195 3.785-3.129 0-1.804-1.16-2.285-1.734-2.53.902-.587 1.266-1.173 1.266-1.91 0-.552-.364-1.84-2.122-1.84-.914 0-2.132.421-2.683 2.214l.21.047c.2-.375.774-1.441 2.016-1.441 1.008 0 1.5.726 1.5 1.418 0 1.253-1.02 1.91-2.261 2.308zm5.61 4.805c3.458-.223 5.45-2.813 5.45-5.707 0-2.274-1.3-3.82-2.988-3.82-1.77 0-2.86 1.476-2.86 3.292 0 1.113.621 2.696 2.45 2.696.69 0 1.406-.247 2.015-.75l.024.023c-.082.352-.832 3.445-4.137 3.984Zm4.126-5.145c0 .246-.035.41-.211.54-.293.233-.867.48-1.313.48-1.441 0-1.746-1.594-1.746-2.637 0-1.113.317-2.379 1.465-2.379 1.805 0 1.805 2.66 1.805 3.457zm8.036-4.488c-3.305.105-5.613 2.59-5.613 5.355 0 2.871 1.382 4.16 3 4.16 2.425 0 2.918-2.168 2.918-3.164 0-1.828-1.067-2.859-2.508-2.859-.774 0-1.055.164-1.805.61.258-1.665 1.606-3.505 4.031-3.891zm-2.777 4.113c1.44 0 1.851 1.371 1.851 2.777 0 1.536-.633 2.25-1.488 2.25-1.02 0-1.934-1.007-1.934-3.304 0-.82.13-1.149.27-1.278.34-.328.832-.445 1.3-.445m6.055-2.742h2.672c.152 0 .27 0 .316-.117l.516-1.22-.129-.093c-.14.211-.27.352-.62.352h-2.849l-1.488 3.234c-.047.094 0 .176.082.176 1.465.058 3.88.703 3.88 2.883 0 1.664-1.009 2.425-1.888 2.425-.738 0-1.113-.843-1.98-.843-.55 0-.55.398-.55.527 0 .492.644.82 1.722.82 2.156 0 3.656-1.441 3.656-3.257 0-1.207-.152-1.606-.738-2.32-.809-.985-2.086-1.208-3.176-1.407zm10.849 4.805h-1.383v-6.07h-.61L26 41.441v.878h3.832v2.274h1.055V42.32h1.383zm-2.45 0h-3.269l3.246-4.641h.024zm10.401-6.07c-2.11 1.253-3.363 3.304-3.363 5.648 0 1.886.445 2.859 1.113 3.843.527.762 1.418 1.723 2.215 2.145l.164-.223c-2.32-1.476-2.32-4.465-2.32-5.86 0-3.468 1.312-4.534 2.32-5.331zm2.675 4.722c.937-.024 1.289.035 1.77.293.878.457 1.042 1.465 1.042 1.805 0 1.02-.562 2.097-1.828 2.097-.808 0-1.324-.762-1.957-.762-.21 0-.527.094-.527.481 0 .703 1.183.773 1.512.773 2.144 0 3.785-1.195 3.785-3.129 0-1.804-1.16-2.285-1.735-2.53.903-.587 1.266-1.173 1.266-1.91 0-.552-.363-1.84-2.121-1.84-.914 0-2.133.421-2.684 2.214l.211.047c.2-.375.774-1.441 2.016-1.441 1.008 0 1.5.726 1.5 1.418 0 1.253-1.02 1.91-2.262 2.308zm8.215-4.371c1.746 0 1.77 3.433 1.77 4.36 0 1.077-.024 4.347-1.77 4.347s-1.77-3.246-1.77-4.348c0-.926.024-4.36 1.77-4.36m0-.352c-2.508 0-3.082 3.094-3.082 4.711 0 1.653.574 4.7 3.082 4.7s3.082-3.047 3.082-4.7c0-1.617-.575-4.71-3.082-4.71m5.188 9.375c.281 0 .762-.234.762-.738a.786.786 0 0 0-.762-.773.77.77 0 0 0-.762.773c0 .516.47.738.762.738m2.572.153c3.457-.223 5.45-2.813 5.45-5.707 0-2.274-1.301-3.82-2.989-3.82-1.77 0-2.859 1.476-2.859 3.292 0 1.113.621 2.696 2.45 2.696.69 0 1.405-.247 2.015-.75l.023.023c-.082.352-.832 3.445-4.136 3.984zm4.125-5.145c0 .246-.035.41-.21.54-.294.233-.868.48-1.313.48-1.441 0-1.746-1.594-1.746-2.637 0-1.113.316-2.379 1.465-2.379 1.804 0 1.804 2.66 1.804 3.457zM74 39.531c-1.5 0-2.918 1.746-2.918 3.2 0 .937.41 1.863 1.676 1.863 1.652 0 2.73-2.05 2.73-3.563 0-1.406-.996-1.5-1.488-1.5m.176.434c.54 0 .95.492.95 1.16 0 1.16-.95 3.059-2.134 3.059-.878 0-.878-.762-.878-1.032 0-.574.738-3.187 2.062-3.187m-.574-4.594h-.527c-.446.41-.997.926-2.145.926-.715 0-.96-.187-1.172-.363-.223-.188-.41-.375-1.043-.375-1.605 0-2.93 1.875-2.93 3.234 0 1.383.985 1.863 1.594 1.863 1.758 0 2.813-2.12 2.813-3.539 0-.28-.047-.422-.094-.609.2.082.363.129.902.129.739 0 1.114-.2 1.43-.375l.023.023-4.757 8.485h.656zm-5.93 4.817c-.539 0-.855-.258-.855-1.008 0-1.137 1.066-3.211 1.968-3.211.258 0 .082.223.938.445.082.258.129.41.129.633 0 1.535-1.09 3.14-2.18 3.14m9.229 6.82c2.12-1.254 3.375-3.305 3.375-5.648 0-1.887-.457-2.86-1.125-3.844-.516-.762-1.418-1.723-2.203-2.145l-.164.223c2.32 1.488 2.32 4.476 2.32 5.86 0 3.468-1.313 4.534-2.32 5.331zm-97.002 6.179c-1.828 0-2.942 1.476-2.942 3.164 0 1.84 1.23 3.246 2.989 3.246 2.074 0 3.023-1.899 3.023-3.246 0-1.98-1.277-3.164-3.07-3.164m.234 6.023c-1.64 0-1.945-2.508-1.945-3.516 0-1.417.75-2.132 1.605-2.132 1.254 0 1.946 1.488 1.946 3.175 0 1.957-.914 2.473-1.606 2.473m7.526-5.894h-1.675v-1.582c0-.504.058-1.207.808-1.207.645 0 .715 1.019 1.29 1.019.269 0 .585-.176.585-.574 0-.469-.597-.832-1.37-.832-2.45 0-2.45 2.414-2.45 3.176h-1.125v.433h1.125v4.29c0 1.054-.234 1.171-1.137 1.218v.2h3.551v-.2c-1.254-.035-1.266-.387-1.266-1.219V53.75h1.664zm5.456 6.14h3.773v-.199c-1.031 0-1.3-.152-1.3-.809v-8.191l-.106-.023-2.461 1.242v.187c.762-.293.762-.293.926-.293.468 0 .468.352.468.633v6.188c0 1.007-.504 1.03-1.3 1.066zM4.87 57.593l-.175-.07c-.54.855-.797.902-1.301.902H.137l2.297-2.402c.598-.645 1.746-1.887 1.746-3.329 0-1.535-1.23-2.46-2.473-2.46-1.207 0-2.484.656-2.894 2.718l.293.07c.293-.738.703-1.78 1.945-1.78 1.606 0 1.945 1.253 1.945 1.956 0 1.02-.586 2.25-1.77 3.516l-2.425 2.578v.164h5.32ZM11.4 50.42H6.348l-.223.61-.586 1.406.235.105c.445-.715.691-1.101 1.582-1.101h2.965l-2.707 8.12h.89l2.895-8.917zm7.233 7.172-.176-.07c-.539.855-.797.902-1.3.902h-3.258l2.297-2.402c.597-.645 1.746-1.887 1.746-3.329 0-1.535-1.23-2.46-2.473-2.46-1.207 0-2.484.656-2.894 2.718l.293.07c.292-.738.703-1.78 1.945-1.78 1.605 0 1.945 1.253 1.945 1.956 0 1.02-.586 2.25-1.77 3.516l-2.425 2.578v.164h5.32zm2.004 1.863h3.773v-.199c-1.03 0-1.3-.152-1.3-.809v-8.191l-.106-.023-2.46 1.242v.187c.761-.293.761-.293.925-.293.469 0 .469.352.469.633v6.188c0 1.007-.504 1.03-1.301 1.066zm11.707-3.152H30.96v-6.07h-.61l-4.276 6.07v.879h3.832v2.273h1.054v-2.273h1.383zm-2.45 0h-3.269l3.246-4.64h.024zm10.387-6.07c-2.11 1.253-3.364 3.304-3.364 5.648 0 1.887.446 2.86 1.114 3.844.527.761 1.418 1.722 2.214 2.144l.165-.222c-2.32-1.477-2.32-4.465-2.32-5.86 0-3.469 1.312-4.535 2.32-5.332zm1.388 9.527c3.457-.223 5.45-2.813 5.45-5.707 0-2.274-1.301-3.82-2.989-3.82-1.77 0-2.86 1.476-2.86 3.293 0 1.113.622 2.695 2.45 2.695.691 0 1.406-.246 2.016-.75l.023.023c-.082.352-.832 3.446-4.137 3.985zm4.125-5.145c0 .246-.035.41-.21.54-.294.234-.868.48-1.313.48-1.442 0-1.746-1.594-1.746-2.637 0-1.113.316-2.379 1.465-2.379 1.804 0 1.804 2.66 1.804 3.457zm2.757 5.145c3.457-.223 5.45-2.813 5.45-5.707 0-2.274-1.301-3.82-2.989-3.82-1.77 0-2.86 1.476-2.86 3.293 0 1.113.622 2.695 2.45 2.695.691 0 1.406-.246 2.016-.75l.023.023c-.082.352-.832 3.446-4.137 3.985zm4.125-5.145c0 .246-.035.41-.21.54-.294.234-.868.48-1.313.48-1.442 0-1.746-1.594-1.746-2.637 0-1.113.316-2.379 1.464-2.379 1.805 0 1.805 2.66 1.805 3.457zm3.656 4.993c.282 0 .762-.235.762-.739a.786.786 0 0 0-.762-.773.77.77 0 0 0-.761.773c0 .516.468.739.761.739m8.239-2.016-.176-.07c-.54.855-.797.902-1.3.902h-3.259l2.297-2.402c.598-.645 1.746-1.887 1.746-3.329 0-1.535-1.23-2.46-2.472-2.46-1.207 0-2.485.656-2.895 2.718l.293.07c.293-.738.703-1.78 1.945-1.78 1.606 0 1.946 1.253 1.946 1.956 0 1.02-.586 2.25-1.77 3.516L58.5 59.292v.164h5.32zm9.445-3.2c-1.5 0-2.918 1.747-2.918 3.2 0 .937.41 1.863 1.676 1.863 1.652 0 2.73-2.05 2.73-3.562 0-1.407-.996-1.5-1.488-1.5m.176.434c.539 0 .949.492.949 1.16 0 1.16-.95 3.059-2.133 3.059-.879 0-.879-.762-.879-1.031 0-.574.739-3.188 2.063-3.188m-.574-4.593h-.528c-.445.41-.996.925-2.144.925-.715 0-.961-.187-1.172-.363-.223-.187-.41-.375-1.043-.375-1.606 0-2.93 1.875-2.93 3.234 0 1.383.984 1.864 1.594 1.864 1.758 0 2.812-2.121 2.812-3.54 0-.28-.047-.421-.093-.609.199.082.363.13.902.13.738 0 1.113-.2 1.43-.376l.023.024-4.758 8.484h.657zm-5.93 4.816c-.54 0-.856-.258-.856-1.008 0-1.137 1.067-3.21 1.97-3.21.257 0 .081.222.937.445.082.257.129.41.129.632 0 1.535-1.09 3.14-2.18 3.14m9.222 6.82c2.122-1.254 3.375-3.304 3.375-5.648 0-1.887-.457-2.86-1.125-3.844-.515-.762-1.417-1.723-2.203-2.144l-.164.222c2.32 1.488 2.32 4.477 2.32 5.86 0 3.468-1.312 4.535-2.32 5.332zm0 0" aria-label="fixedbitset {{impl}} count_ones_impl 39654 (30.9%) of 127214 (99.2%)" clip-path="url(#b)" style="fill:#000;fill-opacity:1;fill-rule:nonzero;stroke:none" transform="matrix(1.423 0 0 1.42314 43.93 45.162)"/><path d="M2242.81 2778.77v-153.26" clip-path="url(#c)" style="fill:none;stroke:#000;stroke-width:7.62272;stroke-linecap:butt;stroke-linejoin:miter;stroke-miterlimit:10;stroke-dasharray:none;stroke-opacity:1" transform="matrix(.1423 0 0 -.14231 -234.275 395.459)"/><path d="m2256.15 2624.48-13.34-38.11-13.34 38.11" clip-path="url(#d)" style="fill:#000;fill-opacity:1;fill-rule:nonzero;stroke:none" transform="matrix(.1423 0 0 -.14231 -234.275 395.459)"/><path d="m2256.15 2624.48-13.34-38.11-13.34 38.11z" clip-path="url(#e)" style="fill:none;stroke:#000;stroke-width:7.62272;stroke-linecap:butt;stroke-linejoin:miter;stroke-miterlimit:10;stroke-dasharray:none;stroke-opacity:1" transform="matrix(.1423 0 0 -.14231 -234.275 395.459)"/><path d="M1648.24 375.246h1189.14v1242.5H1648.24Z" clip-path="url(#f)" style="fill:none;stroke:#000;stroke-width:3.81136;stroke-linecap:butt;stroke-linejoin:miter;stroke-miterlimit:10;stroke-dasharray:none;stroke-opacity:1" transform="matrix(.1423 0 0 -.14231 -234.275 395.459)"/><path d="M7.337-2.882c-.62.949-1.3 1.734-2.636 1.734-1.547 0-2.813-1.394-2.813-3.516 0-2.718 1.688-3.28 2.379-3.28.973 0 1.066.327 1.207.878l.117.41c.106.399.422.88.903.844.55-.035.843-.387.843-.809 0-.328-.234-.902-.785-1.289-.469-.293-1.289-.574-1.957-.574-1.992 0-4.137 1.535-4.137 4.559C.458-1.02 2.438.188 3.915.188c1.489 0 2.684-.797 3.68-2.894zm5.54-5.602c-2.472 0-3.984 2.016-3.984 4.278 0 2.496 1.652 4.394 4.031 4.394 2.813 0 4.102-2.566 4.102-4.394 0-2.672-1.735-4.278-4.149-4.278m.305 8.156c-2.203 0-2.637-3.398-2.637-4.757 0-1.922 1.02-2.883 2.18-2.883 1.7 0 2.637 2.015 2.637 4.3 0 2.637-1.23 3.34-2.18 3.34m5.962-1.218c0 1.03-.305 1.09-1.313 1.265v.282h4.43v-.282c-.949-.035-1.57-.105-1.57-1.383v-4.148c0-.586.808-1.512 1.254-1.512s.62.645 1.265.645c.446 0 .704-.352.704-.809 0-.61-.364-.996-.997-.996-.703 0-1.324.363-2.191 1.676h-.035v-1.64l-.094-.036a43 43 0 0 1-2.73.996v.293c.164-.035.363-.07.632-.07.293 0 .645.012.645 1.101zm12.425-1.477c-.422.68-1.219 1.934-2.86 1.934-1.218 0-2.707-.75-2.93-4.02h5.731c-.199-2.414-1.512-3.375-3.246-3.375-1.465 0-3.762 1.125-3.762 4.535 0 2.625 1.407 4.137 3.457 4.137 2.649 0 3.727-2.508 3.903-3.082zm-5.73-2.672c.292-1.629 1.007-2.12 2.027-2.12 1.453 0 1.64 1.23 1.77 2.12zM.903 18.537c0 1.09-.282 1.336-1.149 1.382v.282H3.67v-.282c-.96-.046-1.218-.351-1.218-.949V13.78c.703-.68 1.277-1.043 1.828-1.043 1.09 0 1.418.656 1.418 1.781v3.856c0 1.406-.48 1.5-1.16 1.546v.282h3.832v-.282c-.903-.07-1.125-.351-1.125-1.207v-4.23c0-2.273-1.301-2.766-2.157-2.766-1.09 0-1.78.645-2.695 1.489v-1.453l-.129-.036c-.844.317-1.71.586-2.543.832v.317c.07-.047.281-.082.54-.082.292 0 .644.023.644 1.183zm16.83.738c-1.1.035-1.148-.387-1.148-1.043v-6.328H13.68v.305c1.29.046 1.36.433 1.36 1.171v4.336c0 .598-.13.786-.293.938-.504.398-1.055.656-1.606.656-1.219 0-1.383-1.137-1.383-1.394v-6.012H9.063v.258c.55.035 1.148.07 1.148 1.172v4.652c0 1.957 1.442 2.402 2.192 2.402.328 0 1.219-.082 1.933-.797l.797-.797v1.536l.035.035c.868-.317 1.57-.574 2.567-.832zm2.219-.645c0 1.243-.551 1.278-1.29 1.29v.28h4.102v-.28c-.644-.012-1.254-.047-1.254-.95v-5.203c0-.094.844-1.09 2.121-1.09.95 0 1.266.715 1.266 1.934v4.008c0 1.195-.422 1.254-1.254 1.3v.282h4.137v-.282c-.762-.011-1.336-.07-1.336-1.476v-4.64c.41-.634 1.043-1.126 2.05-1.126 1.325 0 1.348 1.09 1.348 2.028v3.89c0 1.184-.293 1.219-1.219 1.324v.282h4.043v-.282l-.48-.035c-.809-.129-.797-.68-.797-1.09v-3.796c0-1.36-.258-3.282-2.168-3.282-1.465 0-2.59 1.102-2.976 1.547-.2-.773-.774-1.547-1.97-1.547-.995 0-1.757.586-2.847 1.418v-1.382l-.129-.036c-.844.317-1.71.586-2.578.832v.317c.14-.047.328-.082.586-.082.293 0 .645.023.645 1.183zm-35.409 22.533c0 2.203 1.149 2.578 3.047 2.578v-.2c-1.312-.304-1.676-.996-1.676-2.273v-3.094c0-1.312-.246-2.039-1.687-2.343v-.047c1.441-.328 1.687-1.043 1.687-2.356v-3.093c0-1.278.364-1.98 1.676-2.274v-.2c-1.898 0-3.047.364-3.047 2.556v3.293c0 1.171-.293 1.746-1.57 2.074 1.277.351 1.57.926 1.57 2.11zm8.965 0c0 2.203 1.149 2.578 3.047 2.578v-.2c-1.312-.304-1.676-.996-1.676-2.273v-3.094c0-1.312-.246-2.039-1.687-2.343v-.047c1.441-.328 1.687-1.043 1.687-2.356v-3.093c0-1.278.364-1.98 1.676-2.274v-.2c-1.898 0-3.047.364-3.047 2.556v3.293c0 1.171-.293 1.746-1.57 2.074 1.277.351 1.57.926 1.57 2.11zm5.848-.762h4.371v-.281c-1.266-.07-1.36-.387-1.36-1.606v-6.539l-.081-.058c-.95.351-1.899.703-2.86 1.02v.269c.246-.036.48-.07.738-.07.305 0 .657.011.657 1.1v4.278c0 1.442-.317 1.559-1.465 1.606zM.505 28.74c0 .351.258.949.914.949.563 0 .961-.41.961-.95 0-.515-.398-.937-.96-.937-.645 0-.915.586-.915.938m5.38 10.09c0 1.242-.552 1.277-1.29 1.289v.28h4.102v-.28c-.645-.012-1.254-.047-1.254-.95v-5.203c0-.093.844-1.09 2.12-1.09.95 0 1.267.715 1.267 1.934v4.008c0 1.195-.422 1.254-1.254 1.3v.282h4.136v-.281c-.761-.012-1.336-.07-1.336-1.477v-4.64c.41-.633 1.043-1.126 2.051-1.126 1.324 0 1.348 1.09 1.348 2.028v3.89c0 1.184-.293 1.22-1.219 1.325v.28H18.6v-.28l-.48-.035c-.809-.13-.797-.68-.797-1.09v-3.797c0-1.36-.258-3.281-2.168-3.281-1.465 0-2.59 1.101-2.977 1.546-.199-.773-.773-1.546-1.969-1.546-.996 0-1.757.585-2.847 1.418v-1.383l-.13-.035c-.843.316-1.71.585-2.577.832v.316c.14-.047.328-.082.586-.082.293 0 .644.023.644 1.184zm14.26 3.984c0 .797-.07 1.184-1.288 1.277v.317h4.465v-.34c-1.336 0-1.63-.2-1.63-1.383v-2.894c.61.585 1.126.796 1.864.796 2.566 0 3.879-2.59 3.879-4.71 0-2.45-1.406-3.961-3.047-3.961-1.418 0-2.273.902-2.66 1.418l-.035-.036v-1.347l-.106-.035c-.89.351-1.77.668-2.66.937v.293c.164-.012.352-.012.516-.012.644 0 .703.317.703 1.055zm1.548-8.578c.117-.703 1.148-1.219 1.816-1.219 2.25 0 2.332 2.988 2.332 3.422 0 3.2-1.652 3.55-2.261 3.55-1.02 0-1.887-.784-1.887-1.218zm6.79 6.164h4.36v-.281c-1.078-.047-1.394-.2-1.394-1.266V27.838l-.07-.035c-.973.317-1.958.574-2.93.809v.293c.222-.012.386-.035.62-.035.727 0 .833.293.833 1.125v8.8c0 1.02-.328 1.254-1.418 1.325zm10.29-9.961c0-2.215-1.137-2.578-3.035-2.578v.2c1.3.292 1.676.995 1.676 2.273v3.093c0 1.313.234 2.028 1.675 2.344v.035c-1.441.328-1.675 1.055-1.675 2.367v3.094c0 1.277-.375 1.969-1.676 2.274v.199c1.898 0 3.035-.375 3.035-2.567v-3.28c0-1.184.305-1.759 1.57-2.11-1.265-.328-1.57-.903-1.57-2.074zm8.965 0c0-2.215-1.137-2.578-3.035-2.578v.2c1.3.292 1.675.995 1.675 2.273v3.093c0 1.313.235 2.028 1.676 2.344v.035c-1.441.328-1.676 1.055-1.676 2.367v3.094c0 1.277-.375 1.969-1.675 2.274v.199c1.898 0 3.035-.375 3.035-2.567v-3.28c0-1.184.304-1.759 1.57-2.11-1.266-.328-1.57-.903-1.57-2.074zm-67.081 27.278c-.621.95-1.301 1.735-2.637 1.735-1.547 0-2.813-1.395-2.813-3.516 0-2.719 1.688-3.281 2.38-3.281.972 0 1.066.328 1.206.879l.118.41c.105.398.421.879.902.844.55-.036.844-.387.844-.809 0-.328-.235-.902-.785-1.289-.47-.293-1.29-.574-1.958-.574-1.992 0-4.136 1.535-4.136 4.558 0 2.907 1.98 4.114 3.457 4.114 1.488 0 2.683-.797 3.68-2.895zm5.551-5.601c-2.472 0-3.984 2.015-3.984 4.277 0 2.496 1.652 4.395 4.031 4.395 2.813 0 4.102-2.567 4.102-4.395 0-2.672-1.735-4.277-4.149-4.277m.305 8.156c-2.203 0-2.637-3.398-2.637-4.758 0-1.922 1.02-2.883 2.18-2.883 1.7 0 2.637 2.016 2.637 4.301 0 2.637-1.23 3.34-2.18 3.34m13.403-.598c-1.101.035-1.148-.386-1.148-1.043v-6.328h-2.906v.305c1.289.047 1.36.434 1.36 1.172v4.336c0 .597-.13.785-.294.937-.504.399-1.055.656-1.605.656-1.22 0-1.383-1.136-1.383-1.394v-6.012h-2.695v.258c.55.035 1.148.07 1.148 1.172v4.652c0 1.957 1.441 2.403 2.191 2.403.329 0 1.22-.082 1.934-.797l.797-.797v1.535l.035.035c.867-.316 1.57-.574 2.566-.832zm2.037-.738c0 1.09-.282 1.336-1.149 1.383v.281h3.914v-.281c-.96-.047-1.219-.352-1.219-.95v-5.19c.704-.68 1.278-1.044 1.829-1.044 1.09 0 1.418.657 1.418 1.782v3.855c0 1.406-.48 1.5-1.16 1.547v.281h3.831v-.281c-.902-.07-1.125-.352-1.125-1.207v-4.23c0-2.274-1.3-2.766-2.156-2.766-1.09 0-1.781.644-2.695 1.488v-1.453l-.129-.035c-.844.316-1.711.586-2.543.832v.316c.07-.047.281-.082.539-.082.293 0 .645.024.645 1.184zm12.62-6.633H12.71V50.16c0-.14 0-.235-.129-.235-.68.973-.949 1.383-1.652 2.098-.41.41-.82.516-.82.738 0 .059.047.106.082.13h.973v5.554c0 1.84.761 2.344 1.699 2.344.843 0 1.71-.61 2.156-1.407l-.234-.199c-.211.235-.54.645-1.125.645-.95 0-.95-1.09-.95-1.664V52.89h1.864zm9.824 10.606v-.926h-9.223v.926zm4.7-10.793c-2.474 0-3.985 2.015-3.985 4.277 0 2.496 1.652 4.395 4.031 4.395 2.813 0 4.102-2.567 4.102-4.395 0-2.672-1.735-4.277-4.149-4.277m.304 8.156c-2.203 0-2.637-3.398-2.637-4.758 0-1.922 1.02-2.883 2.18-2.883 1.699 0 2.637 2.016 2.637 4.301 0 2.637-1.231 3.34-2.18 3.34m6.044-1.336c0 1.09-.281 1.336-1.149 1.383v.281h3.914v-.281c-.96-.047-1.218-.352-1.218-.95v-5.19c.703-.68 1.277-1.044 1.828-1.044 1.09 0 1.418.657 1.418 1.782v3.855c0 1.406-.48 1.5-1.16 1.547v.281h3.832v-.281c-.903-.07-1.125-.352-1.125-1.207v-4.23c0-2.274-1.301-2.766-2.157-2.766-1.09 0-1.78.644-2.695 1.488v-1.453l-.129-.035c-.844.316-1.71.586-2.543.832v.316c.07-.047.281-.082.54-.082.292 0 .644.024.644 1.184zm15.442-1.36c-.422.68-1.219 1.934-2.86 1.934-1.218 0-2.706-.75-2.929-4.02h5.73c-.199-2.413-1.511-3.374-3.246-3.374-1.464 0-3.761 1.125-3.761 4.535 0 2.625 1.406 4.137 3.457 4.137 2.648 0 3.726-2.508 3.902-3.082zm-5.73-2.671c.293-1.63 1.007-2.121 2.027-2.121 1.453 0 1.64 1.23 1.77 2.12zm12.383-.094-.07-2.531h-.21c-.06.07-.141.199-.317.199-.305 0-.88-.363-1.688-.363-1.793 0-2.59 1.218-2.59 2.25 0 1.36 1.02 2.05 2.157 2.695l1.078.61c.586.328.96.773.96 1.359 0 1.054-.866 1.347-1.5 1.347-1.804 0-2.155-1.605-2.378-2.578h-.293v2.871h.234c.117-.164.188-.222.41-.222.516-.012 1.313.34 2.145.34 1.172 0 2.672-.774 2.672-2.38 0-1.113-.645-1.628-1.547-2.179l-1.992-1.184c-.692-.398-.797-.937-.797-1.312 0-.469.387-1.195 1.394-1.195.82 0 1.653.386 2.051 2.273zm-63.536 13.52c-2.859 1.7-4.547 4.465-4.547 7.641 0 2.543.598 3.867 1.512 5.192.692 1.043 1.91 2.332 2.988 2.906l.211-.305C-8.96 81.762-8.96 77.72-8.96 75.844c0-4.687 1.77-6.129 3.13-7.218zm1.117 12.47h4.37v-.282c-1.265-.07-1.359-.387-1.359-1.605v-6.54l-.082-.058c-.949.352-1.898.703-2.86 1.02v.269c.247-.035.481-.07.74-.07.304 0 .655.011.655 1.101v4.278c0 1.441-.316 1.558-1.464 1.605zm1.148-11.66c0 .35.258.948.914.948.563 0 .961-.41.961-.949 0-.515-.398-.937-.961-.937-.644 0-.914.586-.914.937m5.285 9.995c0 1.09-.281 1.336-1.148 1.383v.281H4.32v-.28c-.961-.048-1.219-.352-1.219-.95v-5.192c.703-.68 1.277-1.043 1.828-1.043 1.09 0 1.418.657 1.418 1.782v3.855c0 1.406-.48 1.5-1.16 1.547v.281h3.832v-.28c-.902-.071-1.125-.352-1.125-1.208v-4.23c0-2.274-1.3-2.766-2.156-2.766-1.09 0-1.782.644-2.696 1.488v-1.453l-.128-.035c-.844.316-1.711.586-2.543.832v.316c.07-.046.28-.082.539-.082.293 0 .644.024.644 1.184zm8.253 1.664h4.36v-.28c-1.079-.048-1.395-.2-1.395-1.267V68.24l-.07-.035c-.973.316-1.957.574-2.93.808v.293c.223-.012.387-.035.621-.035.727 0 .832.293.832 1.125v8.8c0 1.02-.328 1.255-1.418 1.325zm5.153 0h4.371v-.28c-1.265-.071-1.359-.388-1.359-1.606v-6.54l-.082-.058c-.95.352-1.898.703-2.86 1.02v.269c.247-.035.481-.07.739-.07.305 0 .656.011.656 1.101v4.278c0 1.441-.316 1.558-1.465 1.605zm1.149-11.66c0 .352.258.95.914.95.562 0 .96-.41.96-.95 0-.515-.398-.937-.96-.937-.645 0-.914.586-.914.937m5.285 9.996c0 1.09-.281 1.336-1.148 1.383v.281h3.914v-.28c-.961-.048-1.22-.352-1.22-.95v-5.192c.704-.68 1.278-1.043 1.829-1.043 1.09 0 1.418.657 1.418 1.782v3.855c0 1.406-.48 1.5-1.16 1.547v.281h3.832v-.28c-.903-.071-1.125-.352-1.125-1.208v-4.23c0-2.274-1.301-2.766-2.156-2.766-1.09 0-1.782.644-2.696 1.488v-1.453l-.129-.035c-.843.316-1.71.586-2.543.832v.316c.07-.046.282-.082.54-.082.292 0 .644.024.644 1.184zm15.39-1.36c-.422.68-1.22 1.934-2.86 1.934-1.218 0-2.707-.75-2.93-4.02h5.731c-.2-2.413-1.512-3.374-3.246-3.374-1.465 0-3.762 1.125-3.762 4.535 0 2.625 1.406 4.137 3.457 4.137 2.649 0 3.727-2.508 3.903-3.082zm-5.73-2.671c.292-1.629 1.007-2.121 2.027-2.121 1.453 0 1.64 1.23 1.769 2.121zm7.218 8.965c2.86-1.7 4.559-4.465 4.559-7.64 0-2.544-.61-3.88-1.512-5.204-.703-1.031-1.922-2.32-2.988-2.894l-.223.293c3.129 2.015 3.129 6.046 3.129 7.933 0 4.688-1.77 6.129-3.13 7.207zm-74.566 11.177c2.12 1.511 2.894 2.062 2.894 3.433 0 1.29-.867 2.063-2.027 2.063-1.5 0-2.344-1.196-2.344-2.625 0-1.676.879-2.39 1.477-2.871m-2.883 3.058c0 1.442 1.218 2.953 3.504 2.953 3.058 0 3.668-2.062 3.668-3.023 0-1.242-.387-2.309-2.86-4.078.996-.54 2.473-1.313 2.473-3.012 0-1.394-1.137-2.613-3.223-2.613-1.582 0-3.445.996-3.445 2.86 0 1.487.738 2.12 2.285 3.48-1.64 1.254-2.402 1.828-2.402 3.433m1.476-7.394c0-.891.586-1.864 1.969-1.864 1.43 0 2.074.996 2.074 2.016 0 1.617-1.031 2.297-1.734 2.766-.668-.422-2.309-1.477-2.309-2.918m9.703 4.007c1.266-.046 1.735.047 2.391.399 1.184.61 1.406 1.98 1.406 2.437 0 1.383-.75 2.836-2.472 2.836-1.09 0-1.793-1.03-2.637-1.03-.293 0-.715.128-.715.644 0 .96 1.606 1.054 2.04 1.054 2.905 0 5.108-1.617 5.108-4.242 0-2.437-1.558-3.082-2.343-3.41 1.218-.797 1.722-1.594 1.722-2.59 0-.75-.504-2.484-2.882-2.484-1.23 0-2.872.574-3.61 2.988l.27.07c.281-.515 1.054-1.957 2.73-1.957 1.371 0 2.04.985 2.04 1.922 0 1.7-1.395 2.578-3.071 3.117zm10.48.329c2.121 1.511 2.894 2.062 2.894 3.433 0 1.29-.867 2.063-2.027 2.063-1.5 0-2.344-1.196-2.344-2.625 0-1.676.88-2.39 1.477-2.871m-2.883 3.058c0 1.442 1.219 2.953 3.504 2.953 3.059 0 3.668-2.062 3.668-3.023 0-1.242-.387-2.309-2.86-4.078.997-.54 2.473-1.313 2.473-3.012 0-1.394-1.137-2.613-3.222-2.613-1.582 0-3.446.996-3.446 2.86 0 1.487.739 2.12 2.285 3.48-1.64 1.254-2.402 1.828-2.402 3.433m1.477-7.394c0-.891.586-1.864 1.968-1.864 1.43 0 2.075.996 2.075 2.016 0 1.617-1.032 2.297-1.735 2.766-.668-.422-2.308-1.477-2.308-2.918m7.971 10.5c4.688-.305 7.371-3.809 7.371-7.711 0-3.082-1.77-5.168-4.03-5.168-2.403 0-3.88 1.992-3.88 4.441 0 1.512.856 3.656 3.328 3.656a4.2 4.2 0 0 0 2.707-1.02l.036.048c-.106.457-1.125 4.64-5.59 5.379zm5.59-6.961c0 .34-.058.55-.293.738-.387.316-1.172.645-1.77.645-1.956 0-2.367-2.157-2.367-3.563 0-1.512.422-3.223 1.97-3.223 2.46 0 2.46 3.598 2.46 4.688zm7.327-5.438c2.356 0 2.39 4.63 2.39 5.883 0 1.453-.034 5.883-2.39 5.883-2.367 0-2.402-4.395-2.402-5.883 0-1.254.035-5.883 2.402-5.883m0-.48c-3.398 0-4.172 4.183-4.172 6.363 0 2.227.774 6.363 4.172 6.363 3.387 0 4.16-4.136 4.16-6.363 0-2.18-.773-6.363-4.16-6.363m14.989 0c-2.86 1.699-4.547 4.465-4.547 7.64 0 2.543.597 3.868 1.511 5.192.692 1.043 1.91 2.332 2.989 2.906l.21-.305c-3.128-2.004-3.128-6.047-3.128-7.922 0-4.687 1.77-6.128 3.129-7.218zm9.096-.153c-4.465.153-7.593 3.504-7.593 7.254 0 3.88 1.875 5.625 4.054 5.625 3.281 0 3.95-2.93 3.95-4.277 0-2.473-1.442-3.879-3.399-3.879-1.031 0-1.418.223-2.438.832.352-2.25 2.18-4.734 5.461-5.25zm-3.761 5.579c1.957 0 2.507 1.84 2.507 3.738 0 2.086-.843 3.047-2.015 3.047-1.383 0-2.614-1.371-2.614-4.465 0-1.102.188-1.547.364-1.735.468-.445 1.125-.585 1.758-.585m8.264-3.715h3.61c.21 0 .375 0 .433-.164l.692-1.641-.165-.129c-.199.281-.363.48-.843.48h-3.856l-2.015 4.372c-.047.129 0 .246.117.246 1.992.07 5.25.937 5.25 3.89 0 2.25-1.36 3.282-2.555 3.282-.996 0-1.5-1.149-2.683-1.149-.739 0-.739.54-.739.727 0 .656.867 1.101 2.332 1.101 2.907 0 4.946-1.957 4.946-4.406 0-1.64-.211-2.18-.996-3.14-1.09-1.325-2.825-1.641-4.301-1.899zm8.359 10.957c.386 0 1.03-.305 1.03-.996 0-.563-.48-1.043-1.03-1.043-.551 0-1.02.457-1.02 1.043 0 .703.633.996 1.02.996m11.173-4.465h-1.886v-8.203h-.809L41.6 96.736v1.183h5.18v3.083h1.418v-3.083h1.886zm-3.316 0h-4.43l4.383-6.27h.047zm16.233-2.578c-2.039 0-3.949 2.367-3.949 4.312 0 1.278.551 2.532 2.262 2.532 2.238 0 3.691-2.766 3.691-4.817 0-1.898-1.347-2.027-2.004-2.027m.235.586c.738 0 1.289.668 1.289 1.57 0 1.57-1.29 4.137-2.895 4.137-1.183 0-1.183-1.032-1.183-1.407 0-.773.996-4.3 2.789-4.3m-.774-6.211h-.715c-.597.55-1.347 1.254-2.906 1.254-.949 0-1.289-.258-1.582-.493-.293-.27-.55-.503-1.406-.503-2.168 0-3.961 2.53-3.961 4.37 0 1.864 1.324 2.508 2.156 2.508 2.38 0 3.797-2.859 3.797-4.78a2.3 2.3 0 0 0-.129-.821c.281.105.504.176 1.219.176.996 0 1.512-.27 1.945-.516l.035.035-6.445 11.473h.89zm-8.027 6.515c-.715 0-1.137-.351-1.137-1.37 0-1.536 1.43-4.337 2.649-4.337.351 0 .117.293 1.277.598.106.352.164.55.164.867 0 2.063-1.476 4.242-2.953 4.242m12.568 9.223c2.86-1.7 4.559-4.465 4.559-7.64 0-2.544-.61-3.88-1.512-5.204-.703-1.031-1.922-2.32-2.988-2.894l-.223.293c3.13 2.015 3.13 6.047 3.13 7.933 0 4.688-1.77 6.13-3.13 7.207zm0 0" aria-label="core num {{impl}} count_ones (inline) 83890 (65.4%)" clip-path="url(#g)" style="fill:#000;fill-opacity:1;fill-rule:nonzero;stroke:none" transform="matrix(1.423 0 0 1.42314 61.83 188.401)"/><path d="M2242.81 1810.53v-154.17" clip-path="url(#h)" style="fill:none;stroke:#000;stroke-width:7.62272;stroke-linecap:butt;stroke-linejoin:miter;stroke-miterlimit:10;stroke-dasharray:90,90;stroke-dashoffset:0;stroke-opacity:1" transform="matrix(.1423 0 0 -.14231 -234.275 395.459)"/><path d="m2256.15 1656.13-13.34-38.11-13.34 38.11" clip-path="url(#i)" style="fill:#000;fill-opacity:1;fill-rule:nonzero;stroke:none" transform="matrix(.1423 0 0 -.14231 -234.275 395.459)"/><path d="m2256.15 1656.13-13.34-38.11-13.34 38.11z" clip-path="url(#j)" style="fill:none;stroke:#000;stroke-width:7.62272;stroke-linecap:butt;stroke-linejoin:miter;stroke-miterlimit:10;stroke-dasharray:none;stroke-opacity:1" transform="matrix(.1423 0 0 -.14231 -234.275 395.459)"/><path d="M1.124-1.664c.62.433.843.597.843.996 0 .375-.246.597-.585.597-.434 0-.68-.351-.68-.761 0-.48.258-.692.422-.832m-.832.89c0 .41.363.844 1.02.844.878 0 1.054-.598 1.054-.867 0-.363-.106-.668-.82-1.184.293-.152.714-.375.714-.867 0-.41-.328-.762-.937-.762-.457 0-.996.293-.996.832 0 .434.21.61.668 1.008-.48.363-.703.528-.703.996m.433-2.144c0-.258.164-.54.574-.54s.598.294.598.587c0 .468-.305.668-.504.797-.199-.118-.668-.422-.668-.844m2.991 1.16c.364-.012.493.012.692.117.34.176.398.574.398.703 0 .399-.21.82-.715.82-.304 0-.515-.292-.761-.292-.082 0-.2.035-.2.175 0 .282.458.305.586.305.844 0 1.477-.469 1.477-1.219 0-.703-.457-.89-.68-.984.352-.234.504-.469.504-.75 0-.223-.152-.727-.832-.727-.363 0-.832.176-1.054.868l.082.023c.082-.152.304-.563.796-.563.387 0 .586.282.586.551 0 .492-.398.75-.89.903zm3.203.094c.62.433.843.597.843.996 0 .375-.246.597-.586.597-.433 0-.68-.351-.68-.761 0-.48.259-.692.423-.832m-.832.89c0 .41.363.844 1.02.844.878 0 1.054-.598 1.054-.867 0-.363-.106-.668-.82-1.184.292-.152.714-.375.714-.867 0-.41-.328-.762-.937-.762-.457 0-.996.293-.996.832 0 .434.21.61.668 1.008-.48.363-.703.528-.703.996m.433-2.144c0-.258.164-.54.574-.54s.598.294.598.587c0 .468-.305.668-.504.797-.199-.118-.668-.422-.668-.844M9.008.117C10.355.035 11.14-.985 11.14-2.11c0-.89-.515-1.5-1.172-1.5-.691 0-1.113.586-1.113 1.29 0 .433.246 1.054.961 1.054.258 0 .54-.094.774-.293l.011.012C10.578-1.418 10.285-.2 8.984.01zM10.625-1.9c0 .106-.024.164-.094.223-.106.082-.328.187-.504.187-.562 0-.68-.632-.68-1.03 0-.446.118-.938.563-.938.715 0 .715 1.043.715 1.36zm2.3-1.57c.68 0 .69 1.336.69 1.7 0 .421-.01 1.71-.69 1.71s-.692-1.277-.692-1.71c0-.364.012-1.7.691-1.7m0-.14c-.985 0-1.208 1.218-1.208 1.84 0 .644.223 1.84 1.207 1.84.973 0 1.208-1.196 1.208-1.84 0-.622-.235-1.84-1.208-1.84m0 0" aria-label="83890" clip-path="url(#k)" style="fill:#000;fill-opacity:1;fill-rule:nonzero;stroke:none" transform="matrix(1.423 0 0 1.42314 84.879 153.405)"/><path d="M2907.89 741.137h445.93v510.723h-445.93z" clip-path="url(#l)" style="fill:none;stroke:#000;stroke-width:3.81136;stroke-linecap:butt;stroke-linejoin:miter;stroke-miterlimit:10;stroke-dasharray:none;stroke-opacity:1" transform="matrix(.1423 0 0 -.14231 -234.275 395.459)"/><path d="M2.508-.985c-.223.329-.445.598-.903.598-.527 0-.96-.48-.96-1.207 0-.926.574-1.113.808-1.113.34 0 .363.105.41.293l.047.14c.035.141.14.305.305.293.187-.011.293-.129.293-.28 0-.106-.082-.306-.27-.434a1.4 1.4 0 0 0-.668-.2c-.68 0-1.418.528-1.418 1.559 0 .984.68 1.394 1.184 1.394s.914-.27 1.254-.984zm1.89-1.91c-.844 0-1.36.692-1.36 1.465 0 .844.563 1.488 1.371 1.488.961 0 1.395-.867 1.395-1.488 0-.914-.586-1.465-1.407-1.465m.105 2.778c-.762 0-.902-1.149-.902-1.618 0-.656.34-.984.738-.984.586 0 .902.691.902 1.465 0 .902-.422 1.137-.738 1.137m2.03-.41c0 .351-.105.374-.445.433V0H7.6v-.094c-.329-.012-.54-.035-.54-.469V-1.98c0-.199.282-.515.422-.515.153 0 .223.222.434.222.152 0 .246-.129.246-.28 0-.212-.129-.34-.34-.34-.246 0-.457.128-.75.574h-.011v-.563l-.036-.012c-.304.13-.62.235-.925.34v.106a.5.5 0 0 1 .21-.036c.106 0 .223.012.223.387zm4.237-.504c-.141.234-.41.656-.973.656-.422 0-.926-.258-1.008-1.371h1.957c-.058-.82-.516-1.149-1.101-1.149-.504 0-1.29.387-1.29 1.547 0 .89.481 1.406 1.184 1.406.902 0 1.266-.855 1.336-1.043zm-1.957-.914c.105-.551.351-.727.69-.727.505 0 .563.422.61.727zM1.6 4.88l-.024-.856h-.07c-.024.024-.047.07-.106.07-.105 0-.304-.128-.574-.128-.62 0-.89.41-.89.761 0 .47.351.703.738.926l.363.211c.211.106.328.258.328.457 0 .363-.293.469-.504.469-.62 0-.738-.55-.808-.89h-.106v.984H.03c.035-.059.059-.07.14-.07.177-.012.446.105.727.105.399 0 .915-.258.915-.809 0-.375-.223-.55-.528-.738l-.68-.41a.48.48 0 0 1-.269-.446c0-.164.129-.41.469-.41.281 0 .562.14.703.774zm.653 1.98H3.74v-.094c-.363-.023-.469-.07-.469-.433V2.572L3.25 2.56c-.34.106-.668.2-1.008.282v.093c.082 0 .13-.011.211-.011.246 0 .293.105.293.386v3c0 .352-.117.434-.492.457zm1.781 0h1.488v-.094c-.433-.023-.468-.128-.468-.55V3.99l-.024-.023c-.328.117-.644.234-.972.351v.094a1 1 0 0 1 .246-.035c.105 0 .222.012.222.387v1.453c0 .492-.105.527-.492.55zm.387-3.972c0 .117.082.316.316.316.188 0 .328-.14.328-.316a.33.33 0 0 0-.328-.329c-.222 0-.316.2-.316.329m3.82 2.988c-.222.328-.445.597-.902.597-.527 0-.961-.48-.961-1.207 0-.925.574-1.113.809-1.113.34 0 .363.106.41.293l.047.14c.035.141.14.305.304.294.188-.012.293-.13.293-.282 0-.105-.082-.304-.27-.433a1.4 1.4 0 0 0-.667-.2c-.68 0-1.418.528-1.418 1.56 0 .984.68 1.394 1.183 1.394.504 0 .914-.27 1.254-.985zm2.91-.047c-.141.234-.41.656-.973.656-.422 0-.926-.258-1.008-1.37h1.957c-.059-.821-.516-1.15-1.102-1.15-.504 0-1.289.387-1.289 1.548 0 .89.48 1.406 1.184 1.406.902 0 1.266-.856 1.336-1.043zm-1.958-.914c.106-.55.352-.727.692-.727.504 0 .562.422.61.727zM-5.51 13.98c0 .75.399.88 1.043.88v-.071c-.445-.094-.574-.34-.574-.774v-1.054c0-.446-.082-.692-.574-.797v-.012c.492-.117.574-.363.574-.808v-1.055c0-.434.129-.68.574-.774v-.07c-.644 0-1.043.13-1.043.867v1.125c0 .399-.093.598-.527.715.434.117.527.317.527.715zm3.117 0c0 .75.399.88 1.043.88v-.071c-.445-.094-.574-.34-.574-.774v-1.054c0-.446-.082-.692-.574-.797v-.012c.492-.117.574-.363.574-.808v-1.055c0-.434.13-.68.574-.774v-.07c-.644 0-1.043.13-1.043.867v1.125c0 .399-.093.598-.527.715.434.117.527.317.527.715zm2.063-.258h1.488v-.093c-.433-.024-.469-.13-.469-.551v-2.227l-.023-.023c-.328.117-.644.234-.973.352v.093a1 1 0 0 1 .246-.035c.106 0 .223.012.223.387v1.453c0 .492-.105.527-.492.55zM.056 9.75c0 .117.082.316.316.316.188 0 .328-.14.328-.316a.33.33 0 0 0-.328-.328c-.223 0-.316.199-.316.328m1.892 3.433c0 .422-.187.434-.433.446v.093h1.394v-.093c-.222-.012-.433-.024-.433-.328v-1.77c0-.035.293-.375.726-.375.328 0 .434.246.434.656v1.371c0 .41-.14.422-.422.446v.093H4.62v-.093c-.258-.012-.457-.024-.457-.504v-1.582a.78.78 0 0 1 .703-.387c.446 0 .457.375.457.691v1.325c0 .41-.105.422-.41.457v.093h1.371v-.093l-.164-.012c-.27-.047-.27-.234-.27-.375v-1.289c0-.469-.081-1.125-.738-1.125-.504 0-.879.375-1.02.527-.07-.258-.257-.527-.667-.527-.34 0-.598.2-.973.48v-.468l-.047-.012c-.281.105-.586.2-.879.281v.106a1 1 0 0 1 .2-.024c.105 0 .222.012.222.399zm4.922 1.36c0 .27-.023.41-.433.433v.118H7.96v-.118c-.457 0-.563-.07-.563-.468v-.996c.211.199.387.27.645.27.867 0 1.313-.88 1.313-1.606 0-.832-.47-1.348-1.032-1.348-.492 0-.773.305-.914.48l-.012-.011v-.457l-.035-.012c-.304.117-.597.223-.902.316v.106c.059-.012.117-.012.176-.012.222 0 .234.117.234.363zm.527-2.918c.047-.246.399-.422.622-.422.773 0 .796 1.02.796 1.172 0 1.09-.562 1.207-.773 1.207-.34 0-.645-.27-.645-.41zm2.376 2.097h1.489v-.093c-.364-.024-.469-.07-.469-.434V9.433l-.023-.011c-.34.105-.668.199-1.008.281v.094c.082 0 .129-.012.21-.012.247 0 .294.105.294.387v3c0 .351-.118.433-.493.457zm3.569-3.398c0-.75-.387-.879-1.031-.879v.07c.445.094.574.34.574.774v1.055c0 .445.082.691.574.796v.012c-.492.117-.574.363-.574.809v1.054c0 .434-.13.68-.574.774v.07c.644 0 1.03-.129 1.03-.867v-1.125c0-.398.106-.598.54-.715-.434-.117-.54-.316-.54-.715zm3.117 0c0-.75-.387-.879-1.031-.879v.07c.445.094.574.34.574.774v1.055c0 .445.082.691.574.796v.012c-.492.117-.574.363-.574.809v1.054c0 .434-.129.68-.574.774v.07c.644 0 1.031-.129 1.031-.867v-1.125c0-.398.105-.598.54-.715-.435-.117-.54-.316-.54-.715zM.504 20.018c0 .364-.094.446-.387.47v.093h1.336v-.094c-.328-.023-.422-.117-.422-.328v-1.77c.235-.234.434-.351.621-.351.375 0 .493.223.493.61v1.312c0 .48-.165.504-.399.527v.094h1.3v-.094c-.304-.023-.374-.117-.374-.41v-1.441c0-.786-.445-.95-.738-.95-.375 0-.61.223-.926.504v-.492l-.035-.012c-.293.106-.586.2-.868.282v.105a.5.5 0 0 1 .176-.023c.106 0 .223.011.223.398zm5.262-.468c-.141.234-.41.656-.973.656-.422 0-.926-.258-1.008-1.371h1.957c-.058-.82-.515-1.149-1.101-1.149-.504 0-1.29.387-1.29 1.547 0 .89.481 1.406 1.184 1.406.903 0 1.266-.855 1.336-1.042zm-1.957-.914c.105-.551.351-.727.691-.727.504 0 .563.422.61.727zm4.14 1.488c.023.023.105.105.105.2 0 .128-.059.151-.258.163v.094h1.266v-.094c-.106-.012-.27-.012-.516-.375l-.809-1.242.528-.75a.67.67 0 0 1 .515-.281v-.094h-.996v.094c.106.011.246.011.246.152 0 .07-.035.117-.422.68-.117-.188-.375-.574-.375-.68 0-.14.153-.152.27-.152v-.094h-1.3v.094c.21 0 .28 0 .538.386l.598.903-.727 1.043c-.199.281-.28.293-.457.316v.094h.914v-.094c-.105 0-.234 0-.246-.117 0-.07.082-.2.117-.258l.504-.773zm2.906-2.379h-.633v-.727c0-.046 0-.082-.047-.082-.235.34-.328.47-.563.715-.14.14-.28.176-.28.258 0 .012.01.035.023.047h.34v1.887c0 .632.257.796.574.796.293 0 .586-.199.738-.468l-.082-.07c-.07.081-.188.21-.387.21-.316 0-.316-.363-.316-.562v-1.793h.633zM-1.96 23.188c-.973.575-1.547 1.524-1.547 2.602 0 .867.2 1.324.516 1.781.234.352.656.785 1.02.985l.07-.106c-1.067-.68-1.067-2.062-1.067-2.695 0-1.606.61-2.098 1.067-2.461zm.37 4.254h1.487v-.094c-.433-.023-.468-.128-.468-.55V24.57l-.024-.023c-.328.117-.644.234-.972.351v.094a1 1 0 0 1 .246-.035c.105 0 .222.012.222.387v1.453c0 .492-.105.527-.492.55zm.386-3.972c0 .117.082.316.316.316.188 0 .328-.14.328-.316a.33.33 0 0 0-.328-.329c-.222 0-.316.2-.316.329m1.778 3.41c0 .363-.094.445-.386.468v.094h1.335v-.094c-.328-.023-.421-.117-.421-.328v-1.77c.234-.234.433-.35.62-.35.376 0 .493.222.493.609v1.312c0 .48-.164.504-.399.527v.094h1.301v-.094c-.304-.023-.375-.117-.375-.41v-1.441c0-.785-.445-.95-.738-.95-.375 0-.61.223-.926.505v-.493l-.035-.011c-.293.105-.586.199-.867.28v.106a.5.5 0 0 1 .176-.023c.105 0 .222.012.222.398zm2.792.562h1.489v-.094c-.364-.023-.47-.07-.47-.433v-3.762l-.023-.012c-.34.106-.668.2-1.007.282v.093c.082 0 .128-.011.21-.011.247 0 .293.105.293.386v3c0 .352-.117.434-.492.457zm1.743 0h1.489v-.094c-.434-.023-.47-.128-.47-.55V24.57l-.023-.023c-.328.117-.644.234-.972.351v.094a1 1 0 0 1 .246-.035c.105 0 .223.012.223.387v1.453c0 .492-.106.527-.493.55zm.387-3.972c0 .117.082.316.317.316.187 0 .328-.14.328-.316a.33.33 0 0 0-.328-.329c-.223 0-.317.2-.317.329m1.781 3.41c0 .363-.093.445-.386.468v.094h1.336v-.094c-.329-.023-.422-.117-.422-.328v-1.77c.234-.234.433-.35.62-.35.376 0 .493.222.493.609v1.312c0 .48-.164.504-.398.527v.094h1.3v-.094c-.304-.023-.375-.117-.375-.41v-1.441c0-.785-.445-.95-.738-.95-.375 0-.61.223-.926.505v-.493l-.035-.011c-.293.105-.586.199-.867.28v.106a.5.5 0 0 1 .176-.023c.105 0 .222.012.222.398zm5.227-.469c-.14.234-.41.656-.973.656-.422 0-.926-.258-1.008-1.37h1.957c-.058-.821-.515-1.15-1.101-1.15-.504 0-1.29.387-1.29 1.548 0 .89.481 1.406 1.184 1.406.903 0 1.266-.856 1.336-1.043zm-1.957-.914c.105-.55.351-.727.691-.727.504 0 .563.422.61.727zm2.437 3.059c.985-.575 1.559-1.524 1.559-2.602 0-.867-.211-1.324-.516-1.781-.234-.352-.656-.785-1.02-.985l-.07.106c1.067.68 1.067 2.062 1.067 2.695 0 1.606-.61 2.098-1.066 2.461zM-5.9 32.229c.433-.011.597.012.82.141.398.2.48.668.48.82 0 .48-.257.973-.843.973-.375 0-.61-.352-.903-.352-.105 0-.246.047-.246.223 0 .328.551.363.703.363.985 0 1.735-.562 1.735-1.453 0-.832-.528-1.055-.797-1.16.422-.27.586-.55.586-.89 0-.258-.164-.844-.985-.844-.421 0-.972.199-1.23 1.02l.094.023c.093-.176.363-.668.937-.668.457 0 .692.34.692.656 0 .574-.48.879-1.043 1.066zm5.015-2.226c-1.523.047-2.601 1.195-2.601 2.472 0 1.325.644 1.922 1.382 1.922 1.125 0 1.348-1.008 1.348-1.465 0-.843-.492-1.324-1.148-1.324-.364 0-.492.082-.832.281.117-.761.738-1.617 1.863-1.792zM-2.174 31.9c.668 0 .856.633.856 1.278 0 .714-.293 1.03-.692 1.03-.469 0-.89-.456-.89-1.51 0-.388.07-.54.129-.599.152-.152.386-.199.597-.199m2.974.434c.726.515.984.715.984 1.172 0 .445-.293.703-.691.703-.504 0-.797-.399-.797-.89 0-.575.305-.821.504-.985m-.985 1.054c0 .481.422 1.008 1.196 1.008 1.043 0 1.254-.715 1.254-1.043 0-.422-.13-.785-.973-1.382.34-.188.844-.446.844-1.032 0-.48-.399-.89-1.102-.89-.539 0-1.183.34-1.183.972 0 .516.257.727.785 1.196-.563.421-.82.62-.82 1.171m.504-2.53c0-.305.2-.634.668-.634.493 0 .715.34.715.692 0 .55-.351.785-.597.937-.223-.14-.786-.504-.786-.996m5.274 1.991H4.96v-2.8h-.281l-1.98 2.8v.399h1.769v1.055h.492v-1.055h.633zm-1.125 0H2.956l1.5-2.144h.012zm4.763-2.8c-.972.574-1.546 1.523-1.546 2.601 0 .867.199 1.324.515 1.781.235.352.656.786 1.02.985l.07-.106c-1.066-.68-1.066-2.062-1.066-2.695 0-1.605.609-2.098 1.066-2.46zm3.25 3.386-.083-.023c-.246.398-.363.41-.597.41h-1.5l1.054-1.101c.282-.305.81-.868.81-1.536 0-.703-.575-1.136-1.15-1.136-.55 0-1.136.304-1.324 1.254l.13.035c.14-.34.327-.82.902-.82.738 0 .902.574.902.902 0 .468-.281 1.031-.82 1.617L9.68 34.233v.07h2.46Zm.957.938c.13 0 .352-.106.352-.34 0-.2-.164-.363-.352-.363s-.34.164-.34.363c0 .234.212.34.34.34m1.181.07c1.594-.105 2.508-1.3 2.508-2.637 0-1.043-.598-1.757-1.371-1.757-.82 0-1.324.68-1.324 1.511 0 .516.293 1.254 1.136 1.254.317 0 .645-.117.926-.351l.012.011c-.035.164-.387 1.594-1.91 1.84zm1.899-2.379c0 .117-.012.188-.094.258a1.12 1.12 0 0 1-.61.223c-.668 0-.796-.739-.796-1.219 0-.516.14-1.102.668-1.102.832 0 .832 1.23.832 1.594zm5.062-.093c-.691 0-1.348.808-1.348 1.464 0 .434.188.868.774.868.762 0 1.265-.95 1.265-1.641 0-.645-.468-.691-.69-.691m.082.199c.246 0 .445.222.445.539 0 .527-.445 1.406-.996 1.406-.398 0-.398-.352-.398-.48 0-.258.34-1.465.95-1.465m-.27-2.121h-.234c-.21.187-.469.433-.996.433-.328 0-.433-.094-.539-.176-.105-.093-.187-.164-.48-.164-.739 0-1.348.856-1.348 1.489 0 .632.445.855.738.855.809 0 1.29-.973 1.29-1.629 0-.14-.012-.199-.048-.281.106.035.176.059.422.059.34 0 .516-.094.657-.176l.011.012-2.191 3.914h.305zm-2.73 2.226c-.246 0-.387-.129-.387-.469 0-.527.48-1.476.903-1.476.117 0 .035.094.433.2.036.116.059.187.059.292 0 .703-.504 1.453-1.008 1.453m4.236 3.14c.985-.573 1.559-1.523 1.559-2.6 0-.868-.21-1.325-.516-1.782-.234-.352-.656-.785-1.02-.984l-.07.105c1.067.68 1.067 2.063 1.067 2.695 0 1.606-.61 2.098-1.066 2.461zm-35.07 2.851c-.845 0-1.36.692-1.36 1.465 0 .844.562 1.489 1.37 1.489.962 0 1.395-.868 1.395-1.489 0-.914-.586-1.465-1.406-1.465m.105 2.778c-.762 0-.903-1.149-.903-1.617 0-.657.34-.985.739-.985.586 0 .902.692.902 1.465 0 .902-.422 1.137-.738 1.137m3.454-2.719h-.774v-.727c0-.234.035-.562.375-.562.293 0 .328.48.598.48.117 0 .27-.082.27-.27 0-.21-.282-.386-.633-.386-1.137 0-1.137 1.113-1.137 1.465h-.516v.21h.516v1.97c0 .492-.106.539-.516.562v.094h1.63v-.094c-.575-.012-.587-.176-.587-.562v-1.97h.774zm2.718.762c.434-.012.598.011.82.14.4.2.481.668.481.82 0 .481-.258.973-.843.973-.375 0-.61-.351-.903-.351-.105 0-.246.047-.246.222 0 .329.55.364.703.364.985 0 1.735-.563 1.735-1.453 0-.832-.528-1.055-.797-1.16.422-.27.586-.551.586-.891 0-.258-.164-.844-.985-.844-.422 0-.972.2-1.23 1.02l.094.023c.093-.176.363-.668.937-.668.457 0 .691.34.691.656 0 .575-.48.88-1.043 1.067zm5.013-2.227c-1.523.047-2.601 1.195-2.601 2.473 0 1.324.644 1.922 1.382 1.922 1.125 0 1.348-1.008 1.348-1.465 0-.844-.492-1.324-1.148-1.324-.364 0-.493.082-.832.28.117-.76.738-1.616 1.863-1.792zM-2.17 38.76c.668 0 .856.632.856 1.277 0 .715-.293 1.031-.692 1.031-.469 0-.89-.457-.89-1.512 0-.386.07-.539.128-.597.153-.153.387-.2.598-.2m2.013 2.543c1.594-.106 2.508-1.301 2.508-2.637 0-1.043-.598-1.758-1.371-1.758-.82 0-1.325.68-1.325 1.512 0 .515.293 1.254 1.137 1.254.316 0 .645-.118.926-.352l.012.012c-.036.164-.387 1.594-1.91 1.84zm1.898-2.38c0 .118-.011.188-.094.258a1.12 1.12 0 0 1-.609.223c-.668 0-.797-.738-.797-1.219 0-.515.14-1.101.668-1.101.832 0 .832 1.23.832 1.594zm2.028-1.429h1.23c.07 0 .129 0 .152-.059l.235-.562-.059-.035c-.07.093-.117.164-.281.164H3.72l-.68 1.488c-.023.047 0 .082.035.082.68.024 1.793.317 1.793 1.324 0 .774-.469 1.125-.867 1.125-.34 0-.516-.398-.914-.398-.258 0-.258.187-.258.246 0 .234.293.387.797.387.996 0 1.687-.668 1.687-1.512 0-.563-.07-.738-.34-1.066-.374-.457-.96-.563-1.464-.645zm5.466-.586c-.972.574-1.546 1.523-1.546 2.602 0 .867.199 1.324.515 1.78.235.352.656.786 1.02.985l.07-.105c-1.066-.68-1.066-2.063-1.066-2.696 0-1.605.609-2.097 1.066-2.46zm3.25 3.387-.083-.024c-.246.399-.363.41-.597.41h-1.5l1.054-1.101c.282-.305.809-.867.809-1.535 0-.703-.574-1.137-1.148-1.137-.551 0-1.137.305-1.325 1.254l.13.035c.14-.34.327-.82.902-.82.738 0 .902.574.902.902 0 .469-.281 1.031-.82 1.617l-1.125 1.196v.07h2.46Zm.957.937c.13 0 .352-.105.352-.34 0-.199-.164-.363-.352-.363s-.34.164-.34.363c0 .235.212.34.34.34m1.181.07c1.594-.105 2.508-1.3 2.508-2.636 0-1.043-.598-1.758-1.371-1.758-.82 0-1.324.68-1.324 1.512 0 .515.293 1.254 1.136 1.254.317 0 .645-.118.926-.352l.012.012c-.035.164-.387 1.594-1.91 1.84zm1.899-2.378c0 .117-.012.187-.094.257a1.12 1.12 0 0 1-.61.223c-.668 0-.796-.738-.796-1.219 0-.515.14-1.101.667-1.101.833 0 .833 1.23.833 1.594zm5.06-.094c-.692 0-1.349.809-1.349 1.465 0 .433.188.867.774.867.762 0 1.265-.95 1.265-1.64 0-.645-.468-.692-.69-.692m.081.2c.246 0 .445.222.445.538 0 .528-.445 1.406-.996 1.406-.398 0-.398-.351-.398-.48 0-.258.34-1.465.95-1.465m-.27-2.122h-.234c-.21.188-.469.434-.996.434-.328 0-.433-.094-.539-.176-.105-.094-.187-.164-.48-.164-.739 0-1.348.855-1.348 1.488s.445.856.738.856c.809 0 1.29-.973 1.29-1.63 0-.14-.012-.199-.048-.28.106.035.176.058.422.058.34 0 .516-.094.657-.176l.011.012-2.191 3.914h.305zm-2.73 2.227c-.246 0-.387-.13-.387-.47 0-.526.48-1.476.903-1.476.117 0 .035.094.433.2.036.117.059.187.059.292 0 .704-.504 1.454-1.008 1.454m4.236 3.14c.985-.574 1.559-1.523 1.559-2.601 0-.868-.21-1.325-.516-1.782-.234-.351-.656-.785-1.02-.984l-.07.106c1.067.68 1.067 2.062 1.067 2.695 0 1.605-.61 2.097-1.066 2.46zm0 0" aria-label="core slice {{impl}} next (inline) 3684 (2.9%) of 3695 (2.9%)" clip-path="url(#m)" style="fill:#000;fill-opacity:1;fill-rule:nonzero;stroke:none" transform="matrix(1.423 0 0 1.42314 203.384 226.631)"/><path d="M2708.79 1811.25c59.23-60.94 115.6-126.19 162.9-193.5 69.67-99.13 125.58-219.88 167.35-328.2" clip-path="url(#n)" style="fill:none;stroke:#000;stroke-width:.647931;stroke-linecap:butt;stroke-linejoin:miter;stroke-miterlimit:10;stroke-dasharray:90,90;stroke-dashoffset:0;stroke-opacity:1" transform="matrix(.1423 0 0 -.14231 -234.275 395.459)"/><path d="m3051.73 1293.71.96-40.37-25.92 30.95" clip-path="url(#o)" style="fill:#000;fill-opacity:1;fill-rule:nonzero;stroke:none" transform="matrix(.1423 0 0 -.14231 -234.275 395.459)"/><path d="m3051.73 1293.71.96-40.37-25.92 30.95z" clip-path="url(#p)" style="fill:none;stroke:#000;stroke-width:.647931;stroke-linecap:butt;stroke-linejoin:miter;stroke-miterlimit:10;stroke-dasharray:none;stroke-opacity:1" transform="matrix(.1423 0 0 -.14231 -234.275 395.459)"/><path d="M.82-1.758c.364-.012.493.012.692.117.34.176.399.574.399.703 0 .399-.211.82-.715.82C.89-.117.68-.41.434-.41c-.082 0-.2.035-.2.175 0 .282.458.305.587.305.844 0 1.476-.469 1.476-1.219 0-.703-.457-.89-.68-.984.352-.234.505-.469.505-.75 0-.223-.153-.727-.832-.727-.364 0-.832.176-1.055.868l.082.023c.082-.152.305-.563.797-.563.387 0 .586.282.586.551 0 .492-.399.75-.89.903zm4.513-1.887c-1.29.035-2.204 1.008-2.204 2.098C3.13-.434 3.68.07 4.313.07c.95 0 1.137-.844 1.137-1.23 0-.715-.422-1.125-.985-1.125-.293 0-.41.07-.703.246.106-.657.633-1.371 1.582-1.524zm-1.09 1.606c.562 0 .726.539.726 1.09 0 .597-.246.878-.586.878-.398 0-.75-.398-.75-1.289 0-.328.047-.457.106-.504.129-.128.328-.175.504-.175M8.3-3.528H6.332l-.082.235-.235.55.094.036c.176-.27.27-.434.621-.434h1.148L6.824.047h.351L8.3-3.446zm1.899.059c.68 0 .691 1.336.691 1.7 0 .421-.012 1.71-.691 1.71-.68 0-.692-1.277-.692-1.71 0-.364.012-1.7.692-1.7m0-.14c-.985 0-1.207 1.218-1.207 1.84 0 .644.222 1.84 1.207 1.84.972 0 1.207-1.196 1.207-1.84 0-.622-.235-1.84-1.207-1.84m0 0" aria-label="3670" clip-path="url(#q)" style="fill:#000;fill-opacity:1;fill-rule:nonzero;stroke:none" transform="matrix(1.423 0 0 1.42314 166.234 153.405)"/></svg>